<svg width="190.4" height="37.598000000000006" xmlns="http://www.w3.org/2000/svg">
 <style type="text/css">
   .st0 {
      fill: #FDC305;
    }

    .st1 {
      fill: #F06351;
    }

    .text {
      fill: #111111;
    }
  </style>
 <g>
  <title>background</title>
  <rect x="-1" y="-1" width="192.4" height="39.598" id="canvas_background" fill="none"/>
 </g>
 <g>
  <title>Layer 1</title>
  <g id="svg_1">
   <path class="st0" d="m6.1,20.7l0.1,-2.3c6.7,-0.9 13.4,-1.4 20.2,-1.3c0,0.6 0,1.2 -0.1,1.8c0,0 2.9,-1.3 6,-1.8c-2.4,-6.3 -8.5,-10.8 -15.6,-10.8c-8.3,0 -15.2,6.1 -16.5,14.1c2.2,0.1 5.9,0.3 5.9,0.3z" id="svg_2"/>
   <path class="st0" d="m27.2,24.2c-1.2,1.3 -1.4,1.2 -1.4,3.5c0,0.9 0,4.9 0,9.2c4.5,-3 7.4,-8.1 7.4,-13.9c0,-1.1 -0.1,-2.1 -0.3,-3.1c-1.7,1.1 -4.7,3.2 -5.7,4.3z" id="svg_3"/>
   <path class="st0" d="m6.4,25.7c0,0 -3.8,-1.4 -5.2,-1.8c-0.4,-0.1 -0.8,-0.2 -1.2,-0.3c0.2,6 3.7,11.3 8.7,14l-2.3,-11.9z" id="svg_4"/>
  </g>
  <path class="st1" d="m26.3,17.1c0.1,-8.5 -1.4,-16.5 -1.4,-16.5s-0.2,-1.2 -0.9,-0.2c-0.7,1.1 -1.2,3.9 -1.2,3.9c-7.4,-0.4 -12.8,0.3 -12.8,0.3c-0.8,-2.6 -2.1,-3.8 -2.8,-3.6c-0.7,0.3 -0.7,3.4 -0.7,3.4l-0.4,14.1c6.7,-1 13.5,-1.4 20.2,-1.4z" id="svg_5"/>
  <path d="m12.4,14c0,-0.1 1,0.7 1.4,0.9c0.4,0.2 0.6,0.4 0.6,0.6c0,0.2 -0.3,0.3 -0.6,0.3s-0.9,-0.1 -1,-0.3c0,0 0.6,0 0.9,0l0.3,0c0.1,0.1 -1.3,-1 -1.6,-1.5z" id="svg_6"/>
  <path d="m19.9,14.1c0,0 -1,1.3 -1.1,1.3c0,0.1 -0.2,0.3 0.2,0.3s1.1,-0.2 1.2,-0.3c0.1,-0.1 0.1,-0.2 -0.1,-0.2c-0.2,0 -0.7,0 -1,0.1l0.8,-1.2c0,0 0.1,-0.1 0,0z" id="svg_7"/>
  <path d="m16.8,20.2c0,0 0.8,-0.4 1.1,-1c0.3,-0.7 0,-0.9 -0.4,-1c-0.5,-0.1 -1.3,0 -1.7,0.3c-0.4,0.4 -0.3,0.7 -0.1,1c0.2,0.2 0.8,0.6 1.1,0.7z" id="svg_8"/>
  <path class="st1" d="m16.3,21.5c0,0 -0.2,0.4 -0.5,0.6c-0.2,0.2 -0.6,0.4 -1,0.4c-0.6,0 -1.1,-0.2 -1.5,-0.4c-0.2,-0.1 -0.4,-0.3 -0.5,-0.4c-0.2,-0.2 -0.4,-0.3 -0.4,-0.3s0.7,4.1 2.6,4.7c1.8,0.6 2.1,-0.7 2.2,-1.1c0,-0.3 0,-2.1 -0.8,-3.2c0.1,-0.4 0,-0.2 -0.1,-0.3z" id="svg_9"/>
  <g id="svg_10">
   <path d="m14.7,22.6c0,0 0,0 0,0c-1.3,0 -2.3,-1.4 -2.3,-1.4c0,-0.1 0,-0.2 0,-0.2c0.1,0 0.2,0 0.2,0c0,0 1,1.3 2.1,1.3c0,0 0,0 0,0c0.6,0 1.1,-0.3 1.6,-1l0.1,-0.2l0.1,0.2c0,0 0.4,0.8 1,0.8c0.5,0 1.1,-0.4 1.6,-1.3c0,-0.1 0.1,-0.1 0.2,0c0.1,0 0.1,0.1 0,0.2c-0.6,1 -1.3,1.4 -1.9,1.4c-0.6,0 -0.9,-0.5 -1.1,-0.8c-0.4,0.7 -1,1 -1.6,1z" id="svg_11"/>
  </g>
  <path class="st1" d="m26.2,18.9c0,0 -2.5,2.2 -5.1,5.2s-5.2,4.9 -5.2,4.9c-0.2,-0.5 -1.6,-1.5 -1.6,-1.5s-3.1,-2.1 -5.2,-3.8c-1.2,-1 -2.3,-2.2 -3.1,-3c-0.3,0 -1.1,-0.1 -2,-0.1c4.7,7 12,8.8 12,8.8c0.9,-0.1 3.3,-1.9 5.1,-3.3c1.8,-1.4 4.8,-4.5 5.9,-5.9c0.6,-0.7 0.9,-1.4 1.1,-2c-1.1,0.4 -1.9,0.7 -1.9,0.7z" id="svg_12"/>
  <g class="text" id="svg_24">
   <path d="m91.2,28.6c-0.8,-1 -1.2,-2.5 -1.2,-4.4l0,-6.3c0,-1.9 0.4,-3.4 1.2,-4.4c0.8,-1 2.2,-1.5 4.2,-1.5c1.9,0 3.2,0.4 4,1.3c0.8,0.9 1.2,2.1 1.2,3.8l0,1.5l-4,0l0,-1.8c0,-0.7 -0.1,-1.2 -0.2,-1.6c-0.1,-0.3 -0.5,-0.5 -1,-0.5s-1,0.2 -1.1,0.6c-0.2,0.4 -0.3,0.9 -0.3,1.6l0,8.3c0,0.7 0.1,1.2 0.3,1.6c0.2,0.4 0.5,0.6 1.1,0.6c0.5,0 0.9,-0.2 1,-0.6c0.2,-0.4 0.2,-0.9 0.2,-1.6l0,-1.8l3.9,0l0,1.5c0,1.6 -0.4,2.9 -1.2,3.9c-0.8,0.9 -2.1,1.4 -4,1.4c-1.9,-0.1 -3.3,-0.6 -4.1,-1.6z"/>
   <path d="m105.2,12.2l4.5,0l3.3,17.6l-3.6,0l-0.6,-3.7l-2.6,0l-0.6,3.7l-3.7,0l3.3,-17.6zm3.2,11.6l-0.9,-6.9l-0.9,6.9l1.8,0z"/>
   <path d="m115.8,15.1l-2.7,0l0,-2.9l9.3,0l0,2.9l-2.7,0l0,14.7l-4,0l0,-14.7l0.1,0z"/>
   <path d="m129.5,12.2l6.9,0l0,1.8l-4.4,0l0,5.8l3.6,0l0,1.7l-3.6,0l0,6.4l4.5,0l0,1.8l-7,0l0,-17.5z"/>
   <path d="m138.5,12.2l1.7,0l5.1,11.7l0,-11.7l2.1,0l0,17.6l-1.6,0l-5.1,-12l0,12l-2.1,0l0,-17.6l-0.1,0z"/>
   <path d="m149.8,12.2l6.9,0l0,1.8l-4.4,0l0,5.8l3.6,0l0,1.7l-3.6,0l0,6.4l4.5,0l0,1.8l-7,0l0,-17.5z"/>
   <path d="m158.8,12.2l3.6,0c1.8,0 3.1,0.4 4,1.1s1.3,1.9 1.3,3.6c0,2.3 -0.7,3.6 -2.2,4.1l2.5,8.8l-2.4,0l-2.3,-8.3l-1.9,0l0,8.3l-2.5,0l0,-17.6l-0.1,0zm3.4,7.6c1.1,0 1.8,-0.2 2.3,-0.6c0.5,-0.4 0.7,-1.2 0.7,-2.3c0,-0.7 -0.1,-1.3 -0.2,-1.7s-0.4,-0.7 -0.9,-0.9c-0.4,-0.2 -1,-0.3 -1.7,-0.3l-1.1,0l0,5.8l0.9,0z"/>
   <path d="m170.8,28.5c-0.7,-1 -1.1,-2.5 -1.1,-4.5l0,-5.8c0,-1.4 0.1,-2.5 0.4,-3.4c0.3,-0.9 0.8,-1.5 1.5,-2c0.7,-0.5 1.7,-0.7 2.9,-0.7c1.6,0 2.8,0.4 3.6,1.2c0.7,0.8 1.1,2.1 1.1,3.9l0,0.7l-2.3,0l0,-0.6c0,-0.8 -0.1,-1.5 -0.2,-1.9c-0.1,-0.5 -0.3,-0.8 -0.7,-1c-0.3,-0.3 -0.8,-0.4 -1.4,-0.4c-0.7,0 -1.2,0.2 -1.5,0.5c-0.3,0.3 -0.6,0.7 -0.7,1.2c-0.1,0.5 -0.1,1.2 -0.1,2.1l0,6.5c0,1.3 0.2,2.3 0.5,2.9c0.3,0.6 1,0.9 1.9,0.9c0.9,0 1.6,-0.3 1.9,-1c0.3,-0.6 0.5,-1.7 0.5,-3.1l0,-1.2l-2.3,0l0,-1.7l4.5,0l0,8.7l-1.6,0l-0.2,-2c-0.6,1.5 -1.6,2.2 -3.2,2.2c-1.6,0 -2.8,-0.5 -3.5,-1.5z"/>
   <path d="m184.3,23.6l-3.9,-11.4l2.3,0l2.7,8.5l2.7,-8.5l2.3,0l-3.8,11.4l0,6.2l-2.4,0l0,-6.2l0.1,0z"/>
  </g>
 </g>
</svg>